:version 1.10
:name ASF
:units
  mass 1
  length 1
  angle deg
:documentation
  ASF file generated by Kaydara
:root
  axis xyz
  order  tx ty tz rx ry rz
  position 0 0 0
  orientation 0 0 0
:bonedata
  begin
    id 1
    name abdomenDummy
    direction 1 -1.27917e-005 -1.26829e-007
    length 1.79048
    axis 0 0 0 xyz
  end
  begin
    id 2
    name abdomen
    direction 0.987238 0.159249 -9.68575e-008
    length 8.61378
    axis 2.73208e-005 5.54953e-006 9.16328 xyz
    dof rx ry rz
  end
  begin
    id 3
    name chest
    direction 0 0 0
    length 0
    axis 2.65071e-005 8.63688e-006 2.59796 xyz
    dof rx ry rz
  end
  begin
    id 4
    name neckDummyDummy
    direction 0.998972 0.0453274 -1.50742e-007
    length 9.56202
    axis 2.65071e-005 8.63688e-006 2.59796 xyz
  end
  begin
    id 5
    name neckDummy
    direction 0.99977 0.0214525 -1.61748e-007
    length 1.93574
    axis 2.62932e-005 9.26758e-006 1.22924 xyz
    dof rx ry rz
  end
  begin
    id 6
    name neck
    direction 0.99928 -0.0379406 -1.88707e-007
    length 3.70367
    axis 2.56966e-005 1.08122e-005 -2.17436 xyz
    dof rx ry rz
  end
  begin
    id 7
    name head
    direction 0.992648 -0.121037 -2.25408e-007
    length 6.35158
    axis 2.47068e-005 1.29149e-005 -6.95196 xyz
    dof rx ry rz
  end
  begin
    id 8
    name figureHair
    direction -0.86681 -0.498639 -7.83376e-008
    length 8.29884
    axis -2.7515e-005 4.48842e-006 -150.09 xyz
    dof rx ry rz
  end
  begin
    id 9
    name lCollarDummy
    direction 0.994611 0.0451299 -0.0933417
    length 9.60395
    axis 2.65071e-005 8.63688e-006 2.59796 xyz
  end
  begin
    id 10
    name lCollar
    direction 0.0384146 0.00127577 -0.999261
    length 6.95318
    axis 90.4899 87.7973 1.90202 xyz
    dof rx ry rz
  end
  begin
    id 11
    name lShldr
    direction -0.030648 0.0920515 -0.995282
    length 9.61158
    axis -161.793 84.4324 108.415 xyz
    dof rx ry rz
  end
  begin
    id 12
    name lForeArm
    direction 0.000163956 -0.0977586 -0.99521
    length 8.6068
    axis 0.134773 84.3899 -89.8525 xyz
    dof rx ry rz
  end
  begin
    id 13
    name lHand
    direction -0.0190533 -0.1444 -0.989336
    length 7.61479
    axis -7.3729 81.6249 -97.517 xyz
    dof rx ry rz
  end
  begin
    id 14
    name rCollarDummy
    direction 0.994871 0.0442627 0.0909555
    length 9.60761
    axis 2.65071e-005 8.63688e-006 2.59796 xyz
  end
  begin
    id 15
    name rCollar
    direction 0.0334251 -4.74072e-007 0.999441
    length 6.97058
    axis -178.152 -88.0845 -0.000674207 xyz
    dof rx ry rz
  end
  begin
    id 16
    name rShldr
    direction -0.026922 0.0719509 0.997045
    length 9.60913
    axis 71.2822 -85.594 110.514 xyz
    dof rx ry rz
  end
  begin
    id 17
    name rForeArm
    direction 0.00134679 -0.118986 0.992895
    length 8.57176
    axis -88.7923 -83.1659 -89.3516 xyz
    dof rx ry rz
  end
  begin
    id 18
    name rHand
    direction -0.0185183 -0.0768601 0.99687
    length 7.69687
    axis -74.5596 -85.4655 -103.546 xyz
    dof rx ry rz
  end
  begin
    id 19
    name lThighDummy
    direction -0.236086 -0.0385456 -0.970967
    length 4.99155
    axis 0 0 0 xyz
  end
  begin
    id 20
    name lThigh
    direction -0.993968 0.0148998 -0.108653
    length 13.572
    axis -91.4001 6.23768 179.141 xyz
    dof rx ry rz
  end
  begin
    id 21
    name lShin
    direction -0.992341 0.0904576 -0.0841193
    length 18.5862
    axis -91.4558 4.82538 174.792 xyz
    dof rx ry rz
  end
  begin
    id 22
    name lFoot
    direction 0.0209381 -0.999771 -0.00453005
    length 8.44474
    axis 4.86759 0.259522 -88.8001 xyz
    dof rx ry rz
  end
  begin
    id 23
    name rThighDummy
    direction -0.236086 -0.0385456 0.970967
    length 4.99155
    axis 0 0 0 xyz
  end
  begin
    id 24
    name rThigh
    direction -0.993968 0.0148995 0.108653
    length 13.5721
    axis -89.7059 -6.2377 179.141 xyz
    dof rx ry rz
  end
  begin
    id 25
    name rShin
    direction -0.9925 0.0899962 0.0827255
    length 18.6716
    axis -89.2745 -4.74775 174.819 xyz
    dof rx ry rz
  end
  begin
    id 26
    name rFoot
    direction 0.0301721 -0.999545 9.70865e-005
    length 8.45013
    axis -2.50066e-005 -0.00555246 -88.271 xyz
    dof rx ry rz
  end
:hierarchy
  begin
    root abdomenDummy lThighDummy rThighDummy
    abdomenDummy abdomen
    abdomen chest
    chest neckDummyDummy lCollarDummy rCollarDummy
    neckDummyDummy neckDummy
    neckDummy neck
    neck head
    head figureHair
    lCollarDummy lCollar
    lCollar lShldr
    lShldr lForeArm
    lForeArm lHand
    rCollarDummy rCollar
    rCollar rShldr
    rShldr rForeArm
    rForeArm rHand
    lThighDummy lThigh
    lThigh lShin
    lShin lFoot
    rThighDummy rThigh
    rThigh rShin
    rShin rFoot
  end

:SAMPLES-PER-SECOND 25
:FULLY-SPECIFIED
:DEGREES
991
root  9.39076 36.3743 -1.14554 178.053 1.76115 134.198
abdomen  1.84691 -8.4365 -61.1089
chest  -1.3075 9.06949 -23.7331
neckDummy  9.09964e-021 0 8.72668e-016
neck  -0.92399 10.5982 5.57156
head  -4.98851 -11.8867 -1.08661
figureHair  0 1.51661e-021 -9.5315e-016
lCollar  -5.15695e-016 -6.42944e-016 -7.59357e-014
lShldr  -125.479 -53.5621 93.0168
lForeArm  32.4376 -0.0246221 -11.3414
lHand  0.254698 0.195082 5.2986
rCollar  1.7976e-016 -5.12864e-014 1.62755e-015
rShldr  28.2243 -33.3042 89.2684
rForeArm  -19.3951 5.22785 -9.75285
rHand  0.637929 -8.38706 -3.01009
lThigh  -6.98561 -55.2663 2.48755
lShin  -19.0185 -2.51302 -6.8772
lFoot  11.921 0.293248 -15.4916
rThigh  11.8188 -54.7158 -7.80623
rShin  13.0153 -4.09711 5.4683
rFoot  -7.28939 -1.78453 -18.1346
992
root  9.46174 36.3771 -1.13001 178.061 1.53413 132.562
abdomen  2.05074 -8.71181 -61.2844
chest  -1.17271 8.9344 -23.8566
neckDummy  9.09964e-021 0 8.72668e-016
neck  -1.2637 10.851 4.95366
head  -5.40857 -11.8734 -0.43165
figureHair  0 1.51661e-021 -9.5315e-016
lCollar  -5.15695e-016 -6.42944e-016 -7.59357e-014
lShldr  -125.959 -55.0484 92.6033
lForeArm  32.7626 -1.01683 -11.146
lHand  0.254698 0.195082 5.2986
rCollar  1.7976e-016 -5.12864e-014 1.62755e-015
rShldr  28.7089 -32.3139 88.7064
rForeArm  -18.4701 5.57244 -9.08388
rHand  0.685423 -9.98868 -2.43582
lThigh  -6.9525 -53.8806 2.35336
lShin  -18.6256 -2.22439 -6.88425
lFoot  11.8882 0.292553 -15.493
rThigh  11.3474 -53.1775 -7.22583
rShin  12.946 -4.01637 5.47059
rFoot  -7.11873 -1.78432 -18.1794
993
root  9.59707 36.3799 -1.07674 177.87 1.80176 130.804
abdomen  2.08238 -8.4901 -60.6888
chest  -1.05741 8.55844 -23.8986
neckDummy  9.09964e-021 0 8.72668e-016
neck  -1.31417 11.6256 4.77141
head  -5.72585 -12.2979 -0.318608
figureHair  0 1.51661e-021 -9.5315e-016
lCollar  -5.15695e-016 -6.42944e-016 -7.59357e-014
lShldr  -126.373 -57.6867 91.7183
lForeArm  32.5613 -2.63598 -10.83
lHand  0.254698 0.195082 5.2986
rCollar  1.7976e-016 -5.12864e-014 1.62755e-015
rShldr  29.9456 -30.3727 87.8528
rForeArm  -17.3063 6.01197 -8.06429
rHand  0.632184 -12.9104 -0.594723
lThigh  -6.09427 -52.2131 1.51558
lShin  -18.9804 -2.37213 -6.64527
lFoot  11.897 0.310279 -15.66
rThigh  11.4901 -51.6653 -7.20879
rShin  12.155 -3.99226 5.59785
rFoot  -7.34931 -1.8438 -18.5204
994
root  9.76667 36.3771 -1.02067 177.59 2.14777 128.641
abdomen  2.15348 -7.99116 -59.5559
chest  -0.79783 7.90957 -23.7155
neckDummy  9.09964e-021 0 8.72668e-016
neck  -1.32579 12.5813 4.77809
head  -6.03544 -12.722 -0.605453
figureHair  0 1.51661e-021 -9.5315e-016
lCollar  -5.15695e-016 -6.42944e-016 -7.59357e-014
lShldr  -126.929 -61.7197 90.5954
lForeArm  31.6957 -4.54982 -10.2403
lHand  0.254698 0.195082 5.2986
rCollar  1.7976e-016 -5.12864e-014 1.62755e-015
rShldr  31.7992 -27.2183 86.6928
rForeArm  -16.4698 6.54499 -6.77102
rHand  0.471026 -16.0282 1.39878
lThigh  -5.35434 -50.2533 0.738886
lShin  -19.3803 -2.45637 -6.4673
lFoot  11.9828 0.330622 -15.8325
rThigh  11.6518 -49.903 -7.17266
rShin  11.1628 -3.94142 5.72521
rFoot  -7.46232 -1.89931 -18.8613
995
root  9.9314 36.3854 -0.982601 177.43 2.28969 125.699
abdomen  2.22916 -7.68511 -58.5687
chest  -0.497692 7.27503 -23.1525
neckDummy  9.09964e-021 0 8.72668e-016
neck  -1.19472 13.4639 4.90387
head  -6.17409 -13.0058 -1.01556
figureHair  0 1.51661e-021 -9.5315e-016
lCollar  -5.15695e-016 -6.42944e-016 -7.59357e-014
lShldr  -126.242 -66.9723 88.8615
lForeArm  30.4544 -6.63867 -9.39405
lHand  0.254698 0.195082 5.2986
rCollar  1.7976e-016 -5.12864e-014 1.62755e-015
rShldr  34.1059 -22.8052 85.3883
rForeArm  -16.405 7.1296 -5.33781
rHand  0.317434 -18.0877 2.62993
lThigh  -5.13918 -47.2606 0.242925
lShin  -19.0951 -2.80373 -6.61557
lFoot  12.1519 0.364722 -16.1083
rThigh  11.4683 -47.2858 -6.82092
rShin  10.4295 -3.8018 5.70459
rFoot  -7.23415 -1.90908 -18.9991
996
root  10.0847 36.4027 -0.940894 177.331 2.34206 122.205
abdomen  2.26247 -7.53147 -57.5378
chest  -0.308814 6.82448 -22.3089
neckDummy  9.09964e-021 0 8.72668e-016
neck  -0.789607 14.2406 5.49405
head  -6.03496 -13.2631 -1.72918
figureHair  0 1.51661e-021 -9.5315e-016
lCollar  -5.15695e-016 -6.42944e-016 -7.59357e-014
lShldr  -122.369 -72.9179 85.3721
lForeArm  28.7419 -8.68976 -8.37874
lHand  0.254698 0.195082 5.2986
rCollar  1.7976e-016 -5.12864e-014 1.62755e-015
rShldr  36.5856 -17.4671 84.0513
rForeArm  -16.2237 7.69043 -3.90352
rHand  0.249054 -18.958 3.08982
lThigh  -5.06296 -43.5307 -0.202096
lShin  -18.5511 -3.4096 -6.86489
lFoot  12.2793 0.402216 -16.4205
rThigh  11.2007 -44.1923 -6.38621
rShin  9.75721 -3.47208 5.56664
rFoot  -6.97154 -1.90154 -19.0322
997
root  10.2119 36.424 -0.90495 177.214 2.3602 118.494
abdomen  2.28431 -7.33021 -56.1246
chest  -0.103062 6.36712 -21.4803
neckDummy  9.09964e-021 0 8.72668e-016
neck  -0.336784 14.8829 6.37379
head  -5.82817 -13.3834 -2.55704
figureHair  0 1.51661e-021 -9.5315e-016
lCollar  -5.15695e-016 -6.42944e-016 -7.59357e-014
lShldr  -113.952 -79.1345 77.3227
lForeArm  26.8925 -10.2294 -7.38446
lHand  0.254698 0.195082 5.2986
rCollar  1.7976e-016 -5.12864e-014 1.62755e-015
rShldr  38.9115 -11.6938 82.6607
rForeArm  -15.5499 8.22327 -2.78891
rHand  0.238556 -19.3131 3.17459
lThigh  -4.99921 -39.5654 -0.629713
lShin  -18.0291 -3.94411 -7.04114
lFoot  12.3302 0.426341 -16.6238
rThigh  11.1256 -41.3215 -6.08352
rShin  9.05891 -2.25099 5.41264
rFoot  -6.7206 -1.83587 -18.6536
998
root  10.2782 36.4452 -0.892349 177.113 2.25212 114.453
abdomen  2.33111 -7.02034 -54.531
chest  0.15118 5.7304 -20.7323
neckDummy  9.09964e-021 0 8.72668e-016
neck  0.0719479 15.4298 7.14905
head  -5.66179 -13.3313 -3.04188
figureHair  0 1.51661e-021 -9.5315e-016
lCollar  -5.15695e-016 -6.42944e-016 -7.59357e-014
lShldr  -87.2986 -84.7163 50.2916
lForeArm  25.0881 -11.3946 -6.41157
lHand  0.254698 0.195082 5.2986
rCollar  1.7976e-016 -5.12864e-014 1.62755e-015
rShldr  41.0492 -5.66417 81.2493
rForeArm  -15.2478 8.69495 -2.00779
rHand  0.21788 -19.5662 3.30446
lThigh  -5.35289 -35.9862 -0.772008
lShin  -17.3632 -3.01066 -7.22191
lFoot  12.1326 0.368004 -16.1467
rThigh  11.1458 -38.354 -5.77816
rShin  8.36479 -0.351237 5.29685
rFoot  -6.34425 -1.69973 -17.7908
999
root  10.2674 36.4621 -0.890796 177.044 2.09932 110.203
abdomen  2.27316 -6.659 -52.7602
chest  0.282939 5.08788 -20.0861
neckDummy  9.09964e-021 0 8.72668e-016
neck  0.576387 15.9038 8.1552
head  -5.42016 -13.1592 -3.49692
figureHair  0 1.51661e-021 -9.5315e-016
lCollar  -5.15695e-016 -6.42944e-016 -7.59357e-014
lShldr  -6.54005 -84.5638 -30.2409
lForeArm  22.6808 -12.6171 -5.28982
lHand  0.254698 0.195082 5.2986
rCollar  1.7976e-016 -5.12864e-014 1.62755e-015
rShldr  42.8328 0.705205 79.8703
rForeArm  -14.5418 8.98129 -0.944134
rHand  0.2253 -19.5157 3.26091
lThigh  -6.04268 -33.054 -0.743786
lShin  -16.621 -0.255526 -7.37958
lFoot  11.5526 0.208928 -14.7557
rThigh  11.2935 -35.3423 -5.57269
rShin  7.62196 2.16184 5.13519
rFoot  -5.88486 -1.50534 -16.4705
1000
root  10.1706 36.464 -0.887799 176.933 1.88281 105.953
abdomen  2.11168 -6.59787 -50.7174
chest  0.234867 5.04572 -19.38
neckDummy  9.09964e-021 0 8.72668e-016
neck  1.0944 15.9398 9.44227
head  -5.01665 -12.665 -4.2258
figureHair  0 1.51661e-021 -9.5315e-016
lCollar  -5.15695e-016 -6.42944e-016 -7.59357e-014
lShldr  19.9586 -78.3747 -55.2465
lForeArm  19.8071 -13.8384 -4.14064
lHand  0.254698 0.195082 5.2986
rCollar  1.7976e-016 -5.12864e-014 1.62755e-015
rShldr  43.9245 7.52492 78.4182
rForeArm  -12.2698 9.11211 0.848972
rHand  0.340732 -18.7123 2.55914
lThigh  -6.71824 -30.4592 -0.674547
lShin  -15.9835 3.34171 -7.29544
lFoot  10.6974 0.00556713 -12.7629
rThigh  11.3778 -32.5297 -5.32685
rShin  6.92156 5.22671 4.81393
rFoot  -5.37115 -1.26697 -14.7287
1001
root  9.9681 36.4529 -0.88373 176.726 1.59483 101.789
abdomen  1.84641 -7.16292 -48.9928
chest  -0.00331019 6.32537 -17.5412
neckDummy  9.09964e-021 0 8.72668e-016
neck  1.40975 14.9704 9.7806
head  -4.34642 -11.6839 -4.61642
figureHair  0 1.51661e-021 -9.5315e-016
lCollar  -5.15695e-016 -6.42944e-016 -7.59357e-014
lShldr  28.3587 -70.8279 -60.5363
lForeArm  17.31 -15.2198 -2.87834
lHand  0.254698 0.195082 5.2986
rCollar  1.7976e-016 -5.12864e-014 1.62755e-015
rShldr  43.9605 15.1197 76.6908
rForeArm  -9.48947 9.27491 3.37523
rHand  0.475374 -17.2247 1.58563
lThigh  -7.23314 -27.8747 -0.655062
lShin  -15.4948 7.09556 -6.89345
lFoot  9.7962 -0.178026 -10.5205
rThigh  11.2388 -29.7061 -4.92548
rShin  6.34143 8.37723 4.31177
rFoot  -4.65357 -1.01528 -12.7187
